<svg id="logo" viewBox="323.979 184 800.025 800"><path id="ring" class="ring" d="M723.991 184c-223.11 1.778-401.777 182.223-399.999 402.667 0 40.896 7.11 80.897 18.666 118.222 0 5.343 1.778 10.667 5.334 15.111 56 153.777 203.555 264 375.999 264h2.665c106.669-.889 207.113-42.667 281.777-119.111 74.667-76.442 116.447-176.88 115.557-283.546C1122.214 362.667 943.547 184 723.991 184z"/><path class="sun" d="M883.103 307.556c0 23.111-18.676 41.779-41.777 41.779-23.111 0-41.78-18.666-41.78-41.779 0-23.109 18.667-41.778 41.78-41.778 23.11 0 41.777 18.666 41.777 41.778z"/><path class="mountain" d="M725.77 929.777h-1.778c-145.777 0-271.11-91.554-321.777-219.556l212.444-183.999 257.777 370.666c-45.333 21.334-95.111 32.889-146.666 32.889zm244.444-102.221c-16.889 16.88-34.667 31.113-53.333 44.444L793.325 693.335l114.666-98.666 114.667 165.333c-15.111 23.998-32 46.221-52.444 67.554z"/><path class="sky" d="M1047.547 706.667L933.772 541.333c-4.444-6.222-10.659-9.777-17.78-10.666-7.11-.89-14.222.889-20.444 6.222L763.103 650.667 640.436 472.889c-4.444-6.222-10.666-9.777-17.777-10.666-7.111-.89-14.223.889-20.444 6.222L385.325 656c-4.444-22.223-7.111-46.213-8-70.213-.889-191.111 152.889-346.667 344-348.444 18.666 0 36.444 1.778 53.333 4.444-16.889 16.889-26.667 40-26.667 65.777 0 51.556 41.778 93.334 93.334 93.334 50.665 0 91.554-40 93.331-89.778 81.777 63.111 134.223 160.889 135.111 271.111.891 42.658-7.109 84.436-22.22 124.436z"/></svg>