<svg class="svg-source" version="1.1" xmlns="http://www.w3.org/2000/svg"><g id="twitter" data-iconmelon="Flat Social Icons Multicolor:7bea12547295ed9029c6fcbbd9244435"><path class="fond" d="M16 32c8.837 0 16-7.163 16-16 0-8.836-7.163-16-16-16C7.164 0 0 7.164 0 16c0 8.837 7.164 16 16 16"/><path fill="#FFF" d="M24.014 11.809a6.615 6.615 0 0 1-1.889.518 3.288 3.288 0 0 0 1.446-1.818 6.589 6.589 0 0 1-2.09.797 3.288 3.288 0 0 0-5.601 2.999 9.334 9.334 0 0 1-6.778-3.436 3.282 3.282 0 0 0-.444 1.655c0 1.14.58 2.146 1.462 2.737a3.302 3.302 0 0 1-1.49-.411v.041a3.29 3.29 0 0 0 2.639 3.224 3.204 3.204 0 0 1-.866.116c-.212 0-.418-.02-.618-.059a3.287 3.287 0 0 0 3.071 2.282 6.595 6.595 0 0 1-4.084 1.408c-.265 0-.527-.015-.784-.045a9.315 9.315 0 0 0 5.04 1.477c6.05 0 9.355-5.009 9.355-9.355 0-.143-.003-.285-.009-.425a6.73 6.73 0 0 0 1.64-1.705"/></g><g id="facebook" data-iconmelon="Flat Social Icons Multicolor:38ae6a9229521dad4b32606188a9dc31"><path class="fond" d="M16 32c8.836 0 16-7.163 16-16 0-8.836-7.164-16-16-16S0 7.164 0 16c0 8.837 7.163 16 16 16"/><path fill="#FFF" d="M12.14 13.291h1.654v-1.608c0-.708.018-1.802.533-2.479C14.869 8.487 15.614 8 16.895 8c2.087 0 2.965.298 2.965.298l-.414 2.451s-.689-.2-1.332-.2c-.644 0-1.22.231-1.22.874v1.869h2.638l-.184 2.394h-2.454V24h-3.101v-8.315H12.14v-2.394z"/></g><g id="instagram" data-iconmelon="Flat Social Icons Multicolor:9e23392433d61906b4e04b90fb81dd65"><path class="fond" d="M16 32c8.837 0 16-7.164 16-16S24.837 0 16 0C7.162 0 0 7.164 0 16s7.162 16 16 16"/><path fill="#FFF" d="M20.909 8h-9.815a3.095 3.095 0 0 0-3.092 3.092v9.815a3.095 3.095 0 0 0 3.092 3.092h9.815a3.096 3.096 0 0 0 3.093-3.092v-9.815A3.096 3.096 0 0 0 20.909 8zm.888 1.845l.354-.002v2.712l-2.703.009-.01-2.712 2.359-.007zm-8.078 4.512c.512-.709 1.344-1.174 2.283-1.174s1.771.465 2.283 1.174c.334.463.533 1.029.533 1.643 0 1.553-1.264 2.815-2.816 2.815S13.186 17.553 13.186 16c0-.614.2-1.18.533-1.643zm8.724 6.551c0 .846-.688 1.533-1.534 1.533h-9.815a1.534 1.534 0 0 1-1.533-1.533v-6.55h2.389a4.362 4.362 0 0 0-.322 1.643c0 2.413 1.963 4.375 4.375 4.375s4.375-1.962 4.375-4.375c0-.581-.117-1.135-.322-1.643h2.389v6.55z"/></g><g id="flickr" data-iconmelon="Flat Social Icons Multicolor:210710e2c808e53cdbc8b6e0a4bd3b35"><path fill="#FFF" d="M16.001 31.999C24.836 31.999 32 24.836 32 16S24.836.001 16.001.001C7.164.001 0 7.164 0 16s7.164 15.999 16.001 15.999"/><circle fill="#E8328A" cx="20.476" cy="16" r="3.524"/><path fill="#2864AE" d="M15.048 16a3.523 3.523 0 1 1-7.05 0 3.523 3.523 0 0 1 7.05 0z"/></g><g id="pinterest" data-iconmelon="Flat Social Icons Multicolor:cfadd1db3e072c9893b713a85be9d5d2"><path class="fond" d="M16 32c8.837 0 16-7.163 16-16 0-8.836-7.163-16-16-16C7.164 0 0 7.164 0 16c0 8.837 7.164 16 16 16"/><path fill="#FFF" d="M16 7.958a8 8 0 0 0-3.21 15.327c-.023-.559-.004-1.229.139-1.838l1.029-4.358s-.255-.511-.255-1.266c0-1.187.688-2.071 1.543-2.071.728 0 1.079.547 1.079 1.201 0 .731-.467 1.826-.707 2.838-.201.85.425 1.542 1.262 1.542 1.516 0 2.537-1.946 2.537-4.253 0-1.754-1.181-3.065-3.328-3.065-2.427 0-3.938 1.809-3.938 3.83 0 .697.205 1.188.527 1.569.148.175.168.245.115.446-.038.146-.126.501-.163.642-.053.203-.217.275-.4.201-1.118-.458-1.639-1.682-1.639-3.057 0-2.272 1.916-4.999 5.717-4.999 3.055 0 5.065 2.212 5.065 4.584 0 3.139-1.745 5.482-4.317 5.482-.863 0-1.676-.467-1.954-.997 0 0-.465 1.843-.563 2.199-.169.615-.502 1.233-.805 1.713A8 8 0 1 0 16 7.958"/></g><g id="google-plus" data-iconmelon="Flat Social Icons Multicolor:a6e5a23dc8d87c11847618ef0ba8a85e"><path class="fond" d="M16 32c8.836 0 16-7.164 16-16S24.837 0 16 0 0 7.164 0 16s7.164 16 16 16"/><path fill="#FFF" d="M13.354 23.165c-1.903 0-3.276-1.203-3.276-2.648 0-1.418 1.705-2.599 3.606-2.577.443.004.857.076 1.233.197 1.032.719 1.772 1.124 1.981 1.942.04.166.061.336.061.511 0 1.446-.932 2.575-3.605 2.575m.499-8.48c-1.276-.038-2.49-1.428-2.71-3.104-.221-1.678.636-2.96 1.912-2.922s2.49 1.383 2.71 3.06c.22 1.676-.636 3.004-1.912 2.966m2.647 2.483c-.448-.317-1.304-1.088-1.304-1.541 0-.533.151-.794.951-1.418.819-.641 1.4-1.541 1.4-2.588 0-1.246-.556-2.461-1.598-2.862h1.571l1.109-.801h-4.956c-2.221 0-4.312 1.683-4.312 3.632 0 1.992 1.514 3.6 3.774 3.6.157 0 .31-.003.459-.013a2.025 2.025 0 0 0-.252.925c0 .554.298 1.003.675 1.369-.285 0-.56.008-.859.008-2.751 0-4.87 1.753-4.87 3.57 0 1.79 2.322 2.909 5.073 2.909 3.137 0 4.87-1.78 4.87-3.57.002-1.435-.421-2.295-1.731-3.22m7.209-2.337H21.78v-1.929h-1.552v1.929h-1.929v1.553h1.929v1.93h1.552v-1.93h1.929v-1.553z"/></g><filter id="inset-shadow" data-iconmelon="filter:96c25f4e7a8a5b39d6df22c349dbaf39"><feOffset dx="0" dy="0"/><feGaussianBlur stdDeviation="1" result="offset-blur"/><feComposite operator="out" in="SourceGraphic" in2="offset-blur" result="inverse"/><feFlood flood-color="#000" flood-opacity=".95" result="color"/><feComposite operator="in" in="color" in2="inverse" result="shadow"/><feComposite operator="over" in="shadow" in2="SourceGraphic"/></filter><filter id="emboss" data-iconmelon="filter:8c13842ad3ba7fc9372b2b965292b7c0" x="-25%" y="-25%" width="150%" height="150%"><feOffset in="SourceAlpha" dx=".167" dy=".833" result="17"/><feGaussianBlur stdDeviation=".5" in="17" result="18"/><feSpecularLighting surfaceScale="1" specularConstant=".9" specularExponent="15" in="18" result="19"><fePointLight x="-1000" y="-5000" z="300"/></feSpecularLighting><feComposite in="19" in2="SourceAlpha" operator="in" result="20"/><feOffset in="SourceAlpha" dx="-.167" dy="-.833" result="21"/><feGaussianBlur stdDeviation=".5" in="21" result="22"/><feSpecularLighting surfaceScale="1" specularConstant="1.8" specularExponent="8" in="22" result="23"><fePointLight x="100" y="5000" z="300"/></feSpecularLighting><feComposite in="23" in2="SourceAlpha" operator="in" result="24"/><feColorMatrix values="0 0 0 0 0 0 0 0 0 0 0 0 0 0 0 0 0 0 .85 0" in="24" result="25"/><feComposite k1="0" k2=".8" k3=".5" k4="0" in="20" in2="25" operator="arithmetic" result="26"/><feMerge in="26" result="27"><feMergeNode in="SourceGraphic"/><feMergeNode in="26"/></feMerge></filter><filter id="color-shadow" data-iconmelon="filter:bdc5812754ae209767349ab7817fcc03"><feOffset dx="2" dy="2"/><feGaussianBlur stdDeviation="1"/><feColorMatrix type="matrix" values="0 0 0 0 .2, 0 0 0 0 1, 0 0 0 0 .75, 0 0 0 1 0" result="shadow"/><feMerge><feMergeNode in="shadow"/><feMergeNode in="SourceGraphic"/></feMerge></filter></svg>