<svg id="logo" viewBox="323.979 184 800.025 800">
<path id="ring" class="ring" d="M723.991,184c-223.11,1.778-401.777,182.223-399.999,402.667c0,40.896,7.11,80.897,18.666,118.222
	c0,5.343,1.778,10.667,5.334,15.111c56,153.777,203.555,264,375.999,264h2.665c106.669-0.889,207.113-42.667,281.777-119.111
	c74.667-76.442,116.447-176.88,115.557-283.546C1122.214,362.667,943.547,184,723.991,184z"/>
<path class="sun" d="M883.103,307.556c0,23.111-18.676,41.779-41.777,41.779c-23.111,0-41.78-18.666-41.78-41.779
	c0-23.109,18.667-41.778,41.78-41.778C864.436,265.778,883.103,284.444,883.103,307.556z"/>
<path class="mountain" d="M725.77,929.777h-1.778c-145.777,0-271.11-91.554-321.777-219.556l212.444-183.999l257.777,370.666
	C827.103,918.222,777.325,929.777,725.77,929.777z"/>
<path class="mountain" d="M970.214,827.556c-16.889,16.88-34.667,31.113-53.333,44.444L793.325,693.335l114.666-98.666l114.667,165.333
	C1007.547,784,990.658,806.223,970.214,827.556z"/>
<path class="sky" d="M1047.547,706.667L933.772,541.333c-4.444-6.222-10.659-9.777-17.78-10.666c-7.11-0.89-14.222,0.889-20.444,6.222
	L763.103,650.667L640.436,472.889c-4.444-6.222-10.666-9.777-17.777-10.666c-7.111-0.89-14.223,0.889-20.444,6.222L385.325,656
	c-4.444-22.223-7.111-46.213-8-70.213c-0.889-191.111,152.889-346.667,344-348.444c18.666,0,36.444,1.778,53.333,4.444
	c-16.889,16.889-26.667,40-26.667,65.777c0,51.556,41.778,93.334,93.334,93.334c50.665,0,91.554-40,93.331-89.778
	c81.777,63.111,134.223,160.889,135.111,271.111C1070.658,624.889,1062.658,666.667,1047.547,706.667z"/>
</svg>
