<svg class="svg-source" version="1.1" xmlns="http://www.w3.org/2000/svg" xmlns:xlink="http://www.w3.org/1999/xlink">
    <g id="twitter" data-iconmelon="Flat Social Icons Multicolor:7bea12547295ed9029c6fcbbd9244435">
        <g>
            <path class="fond"  d="M16,32c8.837,0,16-7.163,16-16c0-8.836-7.163-16-16-16C7.164,0,0,7.164,0,16C0,24.837,7.164,32,16,32"></path>
            <path fill="#FFFFFF" d="M24.014,11.809c-0.59,0.261-1.224,0.438-1.889,0.518c0.68-0.407,1.202-1.051,1.446-1.818
    c-0.636,0.376-1.339,0.65-2.09,0.797c-0.598-0.639-1.453-1.038-2.399-1.038c-1.815,0-3.287,1.473-3.287,3.288
    c0,0.258,0.027,0.508,0.085,0.749c-2.732-0.137-5.155-1.445-6.778-3.436c-0.283,0.487-0.444,1.052-0.444,1.655
    c0,1.14,0.58,2.146,1.462,2.737c-0.538-0.017-1.045-0.166-1.49-0.411v0.041c0,1.594,1.134,2.922,2.639,3.224
    c-0.275,0.077-0.565,0.116-0.866,0.116c-0.212,0-0.418-0.02-0.618-0.059c0.418,1.306,1.632,2.257,3.071,2.282
    c-1.126,0.883-2.544,1.408-4.084,1.408c-0.265,0-0.527-0.015-0.784-0.045c1.455,0.932,3.184,1.477,5.04,1.477
    c6.05,0,9.355-5.009,9.355-9.355c0-0.143-0.003-0.285-0.009-0.425C23.016,13.047,23.575,12.468,24.014,11.809"></path>
        </g>
    </g>
    <g id="facebook" data-iconmelon="Flat Social Icons Multicolor:38ae6a9229521dad4b32606188a9dc31">
        <g>
            <path class="fond" d="M16,32c8.836,0,16-7.163,16-16c0-8.836-7.164-16-16-16S0,7.164,0,16C0,24.837,7.163,32,16,32"></path>
            <path fill="#FFFFFF" d="M12.14,13.291h1.654v-1.608c0-0.708,0.018-1.802,0.533-2.479C14.869,8.487,15.614,8,16.895,8
    c2.087,0,2.965,0.298,2.965,0.298l-0.414,2.451c0,0-0.689-0.2-1.332-0.2c-0.644,0-1.22,0.231-1.22,0.874v1.869h2.638l-0.184,2.394
    h-2.454V24h-3.101v-8.315H12.14V13.291z"></path>
        </g>
    </g>
    <g id="instagram" data-iconmelon="Flat Social Icons Multicolor:9e23392433d61906b4e04b90fb81dd65">
        <g>
            <path class="fond" d="M16,32c8.837,0,16-7.164,16-16S24.837,0,16,0C7.162,0,0,7.164,0,16S7.162,32,16,32"></path>
            <path fill="#FFFFFF" d="M20.909,8h-9.815c-1.705,0-3.092,1.387-3.092,3.092v3.265v6.55c0,1.705,1.387,3.092,3.092,3.092h9.815
    c1.705,0,3.093-1.387,3.093-3.092v-6.55v-3.265C24.002,9.387,22.614,8,20.909,8z M21.797,9.845l0.354-0.002v0.353v2.359
    l-2.703,0.009l-0.01-2.712L21.797,9.845z M13.719,14.357c0.512-0.709,1.344-1.174,2.283-1.174s1.771,0.465,2.283,1.174
    c0.334,0.463,0.533,1.029,0.533,1.643c0,1.553-1.264,2.815-2.816,2.815S13.186,17.553,13.186,16
    C13.186,15.386,13.386,14.82,13.719,14.357z M22.443,20.908c0,0.846-0.688,1.533-1.534,1.533h-9.815
    c-0.846,0-1.533-0.687-1.533-1.533v-6.55h2.389c-0.206,0.508-0.322,1.062-0.322,1.643c0,2.413,1.963,4.375,4.375,4.375
    s4.375-1.962,4.375-4.375c0-0.581-0.117-1.135-0.322-1.643h2.389V20.908z"></path>
        </g>
    </g>
    <g id="flickr" data-iconmelon="Flat Social Icons Multicolor:210710e2c808e53cdbc8b6e0a4bd3b35">
        <g>
            <path fill="#FFFFFF" d="M16.001,31.999C24.836,31.999,32,24.836,32,16S24.836,0.001,16.001,0.001C7.164,0.001,0,7.164,0,16
    S7.164,31.999,16.001,31.999"></path>
            <circle fill="#E8328A" cx="20.476" cy="16" r="3.524"></circle>
            <path fill="#2864AE" d="M15.048,16c0,1.945-1.576,3.523-3.525,3.523C9.577,19.523,8,17.945,8,16s1.577-3.523,3.522-3.523
    C13.472,12.477,15.048,14.055,15.048,16z"></path>
        </g>
    </g>
    <g id="pinterest" data-iconmelon="Flat Social Icons Multicolor:cfadd1db3e072c9893b713a85be9d5d2">
        <g>
            <path class="fond" d="M16,32c8.837,0,16-7.163,16-16c0-8.836-7.163-16-16-16C7.164,0,0,7.164,0,16C0,24.837,7.164,32,16,32"></path>
            <path fill="#FFFFFF" d="M16,7.958c-4.418,0-8,3.581-8,8c0,3.275,1.97,6.09,4.79,7.327c-0.023-0.559-0.004-1.229,0.139-1.838
    c0.153-0.648,1.029-4.358,1.029-4.358s-0.255-0.511-0.255-1.266c0-1.187,0.688-2.071,1.543-2.071c0.728,0,1.079,0.547,1.079,1.201
    c0,0.731-0.467,1.826-0.707,2.838c-0.201,0.85,0.425,1.542,1.262,1.542c1.516,0,2.537-1.946,2.537-4.253
    c0-1.754-1.181-3.065-3.328-3.065c-2.427,0-3.938,1.809-3.938,3.83c0,0.697,0.205,1.188,0.527,1.569
    c0.148,0.175,0.168,0.245,0.115,0.446c-0.038,0.146-0.126,0.501-0.163,0.642c-0.053,0.203-0.217,0.275-0.4,0.201
    c-1.118-0.458-1.639-1.682-1.639-3.057c0-2.272,1.916-4.999,5.717-4.999c3.055,0,5.065,2.212,5.065,4.584
    c0,3.139-1.745,5.482-4.317,5.482c-0.863,0-1.676-0.467-1.954-0.997c0,0-0.465,1.843-0.563,2.199
    c-0.169,0.615-0.502,1.233-0.805,1.713c0.719,0.213,1.479,0.328,2.267,0.328c4.418,0,8-3.581,8-7.999
    C24,11.539,20.418,7.958,16,7.958"></path>
        </g>
    </g>
    <g id="google-plus" data-iconmelon="Flat Social Icons Multicolor:a6e5a23dc8d87c11847618ef0ba8a85e">
        <g>
            <path class="fond" d="M16,32c8.836,0,16-7.164,16-16S24.837,0,16,0S0,7.164,0,16S7.164,32,16,32"></path>
            <path fill="#FFFFFF" d="M13.354,23.165c-1.903,0-3.276-1.203-3.276-2.648c0-1.418,1.705-2.599,3.606-2.577
    c0.443,0.004,0.857,0.076,1.233,0.197c1.032,0.719,1.772,1.124,1.981,1.942c0.04,0.166,0.061,0.336,0.061,0.511
    C16.959,22.036,16.027,23.165,13.354,23.165 M13.853,14.685c-1.276-0.038-2.49-1.428-2.71-3.104
    c-0.221-1.678,0.636-2.96,1.912-2.922s2.49,1.383,2.71,3.06C15.985,13.395,15.129,14.723,13.853,14.685 M16.5,17.168
    c-0.448-0.317-1.304-1.088-1.304-1.541c0-0.533,0.151-0.794,0.951-1.418c0.819-0.641,1.4-1.541,1.4-2.588
    c0-1.246-0.556-2.461-1.598-2.862h1.571l1.109-0.801h-4.956c-2.221,0-4.312,1.683-4.312,3.632c0,1.992,1.514,3.6,3.774,3.6
    c0.157,0,0.31-0.003,0.459-0.013c-0.146,0.279-0.252,0.598-0.252,0.925c0,0.554,0.298,1.003,0.675,1.369
    c-0.285,0-0.56,0.008-0.859,0.008c-2.751,0-4.87,1.753-4.87,3.57c0,1.79,2.322,2.909,5.073,2.909c3.137,0,4.87-1.78,4.87-3.57
    C18.233,18.953,17.81,18.093,16.5,17.168 M23.709,14.831H21.78v-1.929h-1.552v1.929h-1.929v1.553h1.929v1.93h1.552v-1.93h1.929
    V14.831z"></path>
        </g>
    </g>
    <filter id='inset-shadow' data-iconmelon='filter:96c25f4e7a8a5b39d6df22c349dbaf39'>
        <!-- Shadow offset -->
        <feOffset dx='0' dy='0' />
        <!-- Shadow blur -->
        <feGaussianBlur stdDeviation='1' result='offset-blur' />
        <!-- Invert drop shadow to make an inset shadow-->
        <feComposite operator='out' in='SourceGraphic' in2='offset-blur' result='inverse' />
        <!-- Cut colour inside shadow -->
        <feFlood flood-color='black' flood-opacity='.95' result='color' />
        <feComposite operator='in' in='color' in2='inverse' result='shadow' />
        <!-- Placing shadow over element -->
        <feComposite operator='over' in='shadow' in2='SourceGraphic' />
    </filter>
    <filter id='emboss' data-iconmelon='filter:8c13842ad3ba7fc9372b2b965292b7c0' x="-25%" y="-25%" width="150%" height="150%">
        <feOffset in="SourceAlpha" dx="0.16666666666666666" dy="0.8333333333333334" result="17"></feOffset>
        <feGaussianBlur stdDeviation="0.5" in="17" result="18"></feGaussianBlur>
        <feSpecularLighting surfaceScale="1" specularConstant="0.9" specularExponent="15" in="18" result="19">
            <fePointLight x="-1000" y="-5000" z="300"></fePointLight>
        </feSpecularLighting>
        <feComposite in="19" in2="SourceAlpha" operator="in" result="20"></feComposite>
        <feOffset in="SourceAlpha" dx="-0.16666666666666666" dy="-0.8333333333333334" result="21"></feOffset>
        <feGaussianBlur stdDeviation="0.5" in="21" result="22"></feGaussianBlur>
        <feSpecularLighting surfaceScale="1" specularConstant="1.8" specularExponent="8" in="22" result="23">
            <fePointLight x="100" y="5000" z="300"></fePointLight>
        </feSpecularLighting>
        <feComposite in="23" in2="SourceAlpha" operator="in" result="24"></feComposite>
        <feColorMatrix values="0 0 0 0 0 0 0 0 0 0 0 0 0 0 0 0 0 0 .85 0" in="24" result="25"></feColorMatrix>
        <feComposite k1="0" k2="0.8" k3="0.5" k4="0" in="20" in2="25" operator="arithmetic" result="26"></feComposite>
        <feMerge in="26" result="27">
            <feMergeNode in="SourceGraphic"></feMergeNode>
            <feMergeNode in="26"></feMergeNode>
        </feMerge>
    </filter>
    <filter id='color-shadow' data-iconmelon='filter:bdc5812754ae209767349ab7817fcc03'>
        <feOffset dx="2" dy="2" />
        <feGaussianBlur stdDeviation="1" />
        <feColorMatrix type="matrix" values="0 0 0 0 .2, 0 0 0 0 1, 0 0 0 0 .75, 0 0 0 1 0" result="shadow" />
        <feMerge>
            <feMergeNode in="shadow" />
            <feMergeNode in="SourceGraphic" />
        </feMerge>
    </filter>
</svg>
